<svg width="167" height="75" xmlns="http://www.w3.org/2000/svg"><g fill-rule="nonzero" fill="none"><path d="M8.455 69.265a5.143 5.143 0 01-1.372 3.84 5.273 5.273 0 01-3.86 1.35H0v-9.958h3.448a5.203 5.203 0 013.703 1.226 4.625 4.625 0 011.304 3.542zm-2.793.095a3.164 3.164 0 00-.542-2.03 2.004 2.004 0 00-1.645-.66h-.784v5.578h.6a2.169 2.169 0 001.798-.712c.43-.64.632-1.407.573-2.176zM16.351 74.455l-.49-1.867h-3.236l-.505 1.867H9.164l3.25-9.999h3.59l3.29 9.999h-2.943zm-1.05-4.073l-.428-1.634c-.1-.364-.222-.835-.364-1.41-.144-.577-.238-.99-.283-1.24-.042.232-.121.612-.243 1.144-.12.53-.387 1.577-.8 3.14H15.3zM20.371 74.455v-9.958h2.704v9.958zM25.228 74.455v-9.958h2.692v7.785h3.834v2.173zM36.905 68.188l1.717-3.691h2.916l-3.277 6.07v3.888h-2.712v-3.808l-3.277-6.15h2.93zM48.89 74.455h-2.652v-9.958h5.888v2.16h-3.237v1.9h2.984v2.16h-2.984zM59.87 74.455l-.49-1.867h-3.236l-.503 1.867h-2.957l3.25-9.999h3.59l3.291 9.999h-2.944zm-1.048-4.073l-.429-1.634c-.1-.364-.222-.834-.365-1.41-.143-.577-.237-.99-.283-1.24-.04.232-.12.612-.24 1.144-.12.53-.388 1.577-.801 3.14h2.118zM73.374 74.455h-3.528l-3.638-7.016h-.061c.086 1.104.129 1.947.129 2.528v4.488H63.89v-9.958h3.515l3.625 6.92h.04A39.467 39.467 0 0170.976 69v-4.502h2.398v9.958zM79.921 74.455H77.23v-7.758h-2.432v-2.2h7.548v2.2h-2.425zM89.603 74.455l-.49-1.867h-3.237l-.504 1.867h-2.956l3.249-9.999h3.59l3.29 9.999h-2.942zm-1.05-4.073l-.429-1.634c-.099-.364-.222-.835-.364-1.41-.143-.577-.237-.99-.283-1.24-.041.232-.12.612-.242 1.144-.12.53-.387 1.577-.8 3.14h2.118zM100.136 71.43a2.929 2.929 0 01-.47 1.646 3.073 3.073 0 01-1.357 1.117 5.017 5.017 0 01-2.077.397 8.348 8.348 0 01-1.67-.14 6.218 6.218 0 01-1.403-.485v-2.398c.51.262 1.047.469 1.6.617.498.14 1.011.213 1.528.22.307.024.614-.049.879-.207a.64.64 0 00.279-.534.595.595 0 00-.113-.359 1.328 1.328 0 00-.36-.309c-.166-.104-.608-.318-1.326-.64a6.335 6.335 0 01-1.461-.859 2.628 2.628 0 01-.723-.953 3.168 3.168 0 01-.234-1.274 2.553 2.553 0 011.001-2.145 4.41 4.41 0 012.753-.77 7.72 7.72 0 013.154.715l-.824 2.078c-.75-.381-1.572-.6-2.412-.64a1.257 1.257 0 00-.763.184.555.555 0 00-.239.456c.01.213.122.409.303.524.525.324 1.075.607 1.645.845.688.263 1.302.69 1.79 1.242.346.487.523 1.075.5 1.672zM105.232 68.188l1.716-3.691h2.916l-3.278 6.07v3.888h-2.71v-3.808l-3.277-6.15h2.928zM121.078 71.43a2.929 2.929 0 01-.47 1.646 3.073 3.073 0 01-1.357 1.117 5.017 5.017 0 01-2.077.397 8.348 8.348 0 01-1.669-.14 6.218 6.218 0 01-1.404-.485v-2.398c.51.262 1.047.469 1.601.617.497.14 1.01.213 1.527.22.307.024.614-.049.879-.207a.64.64 0 00.279-.534.595.595 0 00-.112-.359 1.327 1.327 0 00-.362-.309c-.165-.104-.607-.318-1.324-.64a6.335 6.335 0 01-1.462-.859 2.628 2.628 0 01-.722-.953 3.168 3.168 0 01-.235-1.274 2.553 2.553 0 011.001-2.145 4.41 4.41 0 012.753-.77 7.72 7.72 0 013.154.715l-.824 2.078c-.75-.381-1.572-.6-2.412-.64a1.257 1.257 0 00-.763.184.555.555 0 00-.239.456c.01.213.123.409.303.524.525.324 1.075.607 1.645.845.688.263 1.302.69 1.79 1.242.347.487.523 1.075.5 1.672zM129.846 67.664c.06.961-.3 1.901-.985 2.578a3.97 3.97 0 01-2.795.91h-.757v3.303h-2.691v-9.958h3.448a4.217 4.217 0 012.833.824c.652.599 1 1.46.947 2.343zm-4.537 1.295h.49c.354.018.701-.104.964-.342.247-.248.377-.59.357-.94 0-.67-.372-1.007-1.116-1.007h-.695v2.289zM140.753 69.462a5.365 5.365 0 01-1.234 3.82 5.605 5.605 0 01-7.204-.006 6.45 6.45 0 01-.006-7.624 5.638 5.638 0 017.217-.01 5.372 5.372 0 011.227 3.82zm-6.853 0c0 1.925.67 2.888 2.009 2.889a1.73 1.73 0 001.516-.703 5.096 5.096 0 00-.007-4.389 1.708 1.708 0 00-1.496-.712c-1.348 0-2.022.972-2.022 2.915zM145.242 70.83v3.625h-2.69v-9.958h3.263c2.707 0 4.06.98 4.06 2.942a2.94 2.94 0 01-1.69 2.677l2.903 4.339h-3.053l-2.11-3.624h-.683zm0-2.021h.505c.94 0 1.41-.416 1.41-1.248 0-.684-.461-1.027-1.383-1.028h-.532v2.276zM156.388 74.455h-2.691v-7.758h-2.432v-2.2h7.549v2.2h-2.426zM166.75 71.43a2.938 2.938 0 01-.469 1.646 3.08 3.08 0 01-1.356 1.117 5.024 5.024 0 01-2.078.397 8.357 8.357 0 01-1.67-.14 6.209 6.209 0 01-1.402-.485v-2.398c.51.262 1.047.469 1.6.617.498.139 1.01.213 1.526.22.308.024.615-.048.88-.207a.637.637 0 00.278-.534.587.587 0 00-.112-.359 1.308 1.308 0 00-.361-.309c-.166-.104-.607-.318-1.325-.64a6.364 6.364 0 01-1.462-.859 2.643 2.643 0 01-.722-.953 3.168 3.168 0 01-.235-1.274 2.553 2.553 0 011.002-2.145 4.413 4.413 0 012.752-.77 7.716 7.716 0 013.155.715l-.825 2.078a5.964 5.964 0 00-2.412-.64 1.257 1.257 0 00-.763.184.555.555 0 00-.238.456c.01.214.123.409.304.524.525.325 1.075.607 1.645.845.688.263 1.301.69 1.788 1.242.347.487.523 1.075.5 1.672z" fill="#FFF"/><path d="M38.792 8.31s.058.141.147.387a7.988 7.988 0 00-.083-.415l-.064.027" fill="#010101"/><path d="M38.792 8.31s.058.141.147.387a7.988 7.988 0 00-.083-.415l-.064.027" fill="#010101"/><path d="M38.792 8.31s.058.141.147.387a7.988 7.988 0 00-.083-.415l-.064.027" fill="#010101"/><path d="M112.617 21.888H96.6c.338.122.645.317.9.571.252.253.464.543.628.86a4.588 4.588 0 01.495 1.802v9.047a4.382 4.382 0 01-.601 1.809c-.173.288-.38.554-.619.792a3.254 3.254 0 01-.803.59h9.498a2.34 2.34 0 01-1.006-.52 3.063 3.063 0 01-.657-.842 3.595 3.595 0 01-.358-1.036 5.976 5.976 0 01-.107-1.121v-3.48c.542 0 1.051.015 1.528.047.443.025.878.127 1.286.3.388.173.727.439.987.774.316.437.531.939.63 1.47v-7.078c-.202.494-.469.959-.794 1.382a2.65 2.65 0 01-.92.735 3.308 3.308 0 01-1.169.29c-.44.032-.955.048-1.548.048v-4.253l2.902.018c.45 0 .918.019 1.402.057.477.038.95.116 1.413.234.456.115.898.284 1.315.502a3.687 3.687 0 011.403 1.286c.095.145.167.305.212.474v-4.758zM114.145 21.888v5.86c.083-.612.33-1.19.716-1.673.369-.455.827-.83 1.345-1.102a5.568 5.568 0 011.702-.57 7.143 7.143 0 011.808-.078v10.04a3.593 3.593 0 01-.155.751 3.383 3.383 0 01-.503.987 3.557 3.557 0 01-.782.774 3.15 3.15 0 01-1.017.483h10.156a2.656 2.656 0 01-1.122-.474 3.296 3.296 0 01-.812-.86 3.885 3.885 0 01-.494-1.094 4.415 4.415 0 01-.165-1.19v-9.417h.504c.421.01.842.052 1.257.125.533.09 1.053.246 1.548.464.534.24 1.014.586 1.411 1.016.447.493.742 1.104.852 1.76v-5.802h-16.249z" fill="#61B510"/><path d="M87.044 36.567c-.245.223-.522.41-.822.551-.27.122-.445.203-.523.242h10.93a1.839 1.839 0 01-.512-.193 5.578 5.578 0 01-1.499-1.248 6.882 6.882 0 01-.755-1.121 10.198 10.198 0 01-.59-1.315l-.793-2.358-1.073-3.183-2.07-6.054h-9.073c.287.071.563.179.823.32.232.137.443.306.628.502.217.231.37.515.445.823.064.28.064.57 0 .85-.06.284-.144.562-.251.831a52.84 52.84 0 00-.591 1.596c-.04.12-.084.23-.13.34l-1.64 4.234c-.09.245-.225.606-.406 1.083-.18.477-.384.974-.61 1.49-.225.515-.464.999-.715 1.45-.182.358-.42.684-.706.966a9.878 9.878 0 01-1.228.85c-.077.042-.151.087-.222.137h8.162a2.505 2.505 0 01-1.46-.91 2.846 2.846 0 01-.551-1.643 2.4 2.4 0 01.087-.542 7.62 7.62 0 01.213-.705c.083-.239.17-.468.261-.687.089-.22.155-.388.193-.503h4.585c.038.104.09.249.155.436.064.186.132.377.203.57a15.884 15.884 0 01.319.966c.123.437.089.902-.097 1.316a2.967 2.967 0 01-.687.909zm-3.975-6.034l1.625-5.028 1.702 5.028H83.07z" fill="#61B510"/><path d="M70.758 29.644c.394-.18.758-.421 1.078-.713l.1-.1a4.51 4.51 0 00.416-.472l.052-.066c.644-.78.955-1.782.862-2.789a3.322 3.322 0 00-.334-1.266 4.499 4.499 0 00-.415-.686 2.917 2.917 0 00-.987-.87 5.492 5.492 0 00-1.277-.504 8.28 8.28 0 00-1.382-.231 15.44 15.44 0 00-1.306-.058h-10.64c.36.09.7.251.997.473a2.7 2.7 0 01.686.9 3.67 3.67 0 01.33 1.604c.012.336.019.678.02 1.026v7.928a4.67 4.67 0 01-.494 2.05c-.16.321-.37.615-.62.87-.252.26-.55.47-.88.62h9.19a5.926 5.926 0 01-.592-.252 2.243 2.243 0 01-.609-.445 2.654 2.654 0 01-.512-.774 3.966 3.966 0 01-.3-1.257 19.1 19.1 0 01-.078-2.127c.013-.721.02-1.43.02-2.127h.62c.284 0 .56 0 .827-.003 2.423 5.658 3.266 6.985 5.678 6.985h5.307c-1.816 0-4.138-4.253-5.757-7.716m-7.004-1.374v-4.1c.478 0 .95-.009 1.422-.029.427-.024.855.022 1.267.135.362.103.681.32.91.62.263.418.384.91.347 1.402.036.463-.098.924-.377 1.295a1.842 1.842 0 01-.957.571c-.418.1-.847.142-1.276.126-.465-.014-.91-.02-1.336-.02" fill="#61B510"/><path d="M59.94 3.916a4.1 4.1 0 00-2.391 3.508l-.004.002a4.095 4.095 0 00-3.871-.464 4.087 4.087 0 002.718 2.72 8.027 8.027 0 01-2.383 2.388 2.924 2.924 0 01-1.384.457 3.12 3.12 0 01-3.11-1.612 3.116 3.116 0 01-3.933 1.35 7.998 7.998 0 01-3.677-4.726l.069-.006a4.09 4.09 0 003.256-2.337 4.09 4.09 0 00-3.977-.503A5.755 5.755 0 0038.894.308a5.258 5.258 0 00-.52-.26L38.256 0l-.08.103c-.105.135-.2.276-.287.422-.78 1.327-.565 3.71.165 4.949a4.092 4.092 0 00-3.052 1.992c-.07.118-.132.24-.19.364a4.084 4.084 0 003.977.478c.024-.008.045-.017.065-.026a7.98 7.98 0 01-.446 4.94c-.003-.006-.004-.015-.006-.022-.01.04-.025.08-.037.12a7.71 7.71 0 01-.532 1 3.117 3.117 0 01-4.114.688 3.118 3.118 0 01-2.842 3.094 8.042 8.042 0 01-3.684-.964 4.08 4.08 0 001.148-3.163 7.197 7.197 0 00-.076-.685c-1.414.178-2.581 1.438-3.17 2.115h-.003c-.781-.677-2.216-1.885-3.787-1.766a4.149 4.149 0 00-1.05.314 52.907 52.907 0 015.002 4.265 53.164 53.164 0 013.188 3.352c1.411 1.614 3.822 4.874 3.824 4.872a3.258 3.258 0 002.32.871.23.23 0 00.196-.216c.01-.085-.137-.136-.213-.17a1.844 1.844 0 01-1.167-1.296c-.454-1.421 3.8-3.988 10.018-5.566 6.219-1.577 11.213-1.385 11.502.082.16.597.01 1.235-.4 1.698-.05.067-.155.184-.102.254a.231.231 0 00.276.097 3.262 3.262 0 001.615-1.876s.667-4.04 1.126-6.135a52.427 52.427 0 013.533-10.568 4.066 4.066 0 00-1.033.299" fill="#F7760D"/><path d="M37.973 23.214a40.483 40.483 0 0110.514-2.895s7.06.695 7.06 8.98c0 8.284-5.895 13.013-13.919 13.013-8.022 0-12.253-3.536-12.253-7.302 0-3.766 2.708-4.366 3.968-4.366 1.259 0 3.536 1.137 3.536 4.088 0 0-2.267-.556-2.267 1.404 0 1.961 2.68 3.182 6.356 3.182 3.674 0 8.863-1.61 8.863-8.781 0-7.652-3.542-7.994-6.005-7.994v13.125a1.233 1.233 0 001.288 1.155s-1.295 1.092-4.499 1.092c-3.204 0-4.117-1.028-4.117-1.028s1.516.006 1.516-1.332c0-1.336-.04-12.341-.04-12.341" fill="#61B510"/><path d="M126.832 50.644a4.854 4.854 0 00-.38-.847 3.545 3.545 0 00-1.064-1.164l-.002-.002c-.054-.038-.106-.077-.159-.113l-.01-.007a7.1 7.1 0 00-.742-.454c-1.82-.97-3.692-.975-5.194-1.327a6.265 6.265 0 01-.7-.207 5.522 5.522 0 01-.25-.104 3.712 3.712 0 01-.881-.552 1.54 1.54 0 01-.484-.772.883.883 0 01.077-.736c.198-.3.46-.555.765-.744a3.783 3.783 0 011.054-.455c.401-.104.814-.153 1.228-.145.43.006.856.068 1.268.184a9.1 9.1 0 011.382.465c.322.142.624.323.9.54.136.11.265.226.387.35.13.127.264.263.406.405l.474.474c.174.174.39.383.648.628v-5.666s-.434 1.083-2.156 1.083a13.545 13.545 0 01-1.442-.116c-.49-.078-.986-.157-1.49-.243a9.102 9.102 0 00-1.682-.105 8.51 8.51 0 00-2.292.31 6.169 6.169 0 00-1.983.937 4.53 4.53 0 00-1.915 3.858c-.033.68.125 1.357.455 1.953.24.397.536.757.88 1.069l.005.003c.01.011.023.02.033.03l.116.098c.06.051.123.1.185.15 1.253.96 3.023 1.427 5.07 1.895l.114.024.015.004c.21.046.42.1.632.16.389.108.765.257 1.122.445.29.147.546.35.755.599a.788.788 0 01.154.746 1.565 1.565 0 01-.773 1.043c-.404.211-.85.33-1.306.348a5.789 5.789 0 01-1.48-.115 9.818 9.818 0 01-1.296-.35 11.712 11.712 0 01-2.38-1.198 12.036 12.036 0 01-1.401-1.122 7.989 7.989 0 01-1.23-1.469v6.756a5.438 5.438 0 012.394-.72l.007.007c.27-.046.545-.072.82-.077a6.8 6.8 0 011.258.097c.42.07.837.164 1.248.28.442.114.89.198 1.344.251.453.052.908.078 1.364.078.771-.001 1.54-.089 2.291-.261a6.165 6.165 0 002.07-.87 4.827 4.827 0 001.5-1.586 4.532 4.532 0 00.562-2.408 6.782 6.782 0 00-.29-1.335M91.084 44.572c0-.245.013-.51.04-.793.025-.282.077-.56.154-.831.074-.264.181-.517.319-.754a2.1 2.1 0 01.532-.6c.226-.174.492-.287.774-.328h-7.099c.392.02.767.162 1.073.406.28.234.505.528.657.86.165.352.276.727.33 1.112.056.372.085.746.087 1.122v6.923l-6.654-10.423h-8.048c.39.006.765.146 1.064.395.272.241.484.543.619.88.145.36.243.737.29 1.122.05.366.075.734.077 1.103 0 .154.003.384.01.686v7.33a23.3 23.3 0 01-.03.977c-.012.245-.031.496-.057.754a3.47 3.47 0 01-.155.744 2.58 2.58 0 01-.328.668 1.84 1.84 0 01-.561.522 1.174 1.174 0 01-.174.087c-.077.031-.16.06-.242.087a2.695 2.695 0 00-.223.077.485.485 0 01-.116.038h6.944a8.929 8.929 0 01-.492-.28 4.187 4.187 0 01-.407-.29 2.659 2.659 0 01-.338-.32c-.3-.368-.5-.808-.58-1.276a7.803 7.803 0 01-.136-1.411v-6.813l6.548 10.39h7.941a1.671 1.671 0 01-.774-.328 2.096 2.096 0 01-.532-.6 3.25 3.25 0 01-.319-.754 4.511 4.511 0 01-.155-.832 8.777 8.777 0 01-.039-.793v-8.857zM69.871 50.584V44.45c.012-.277.042-.552.09-.825.06-.347.17-.683.328-.997.158-.306.375-.579.639-.802.303-.25.651-.44 1.026-.561h-9.248c.38.103.73.292 1.026.55.301.304.541.662.706 1.056a4.63 4.63 0 01.32 1.894v8.12c0 .258-.007.568-.02.931a3.241 3.241 0 01-.33 1.48 3.037 3.037 0 01-.686.89c-.046.04-.1.076-.153.115-2.267-.923-4.628-3.2-6.377-5.931-1.03-1.607-2.193-3.737-3.162-5.597a99.821 99.821 0 012.485-3.006 10.118 10.118 0 014.979-2.632h-7.549c.41.717.285 1.62-.305 2.198l-5.002 6.047v-4.964l-.161.07a16.048 16.048 0 01-2.78.824c-.245.05-.5.097-.757.137-.538.099-1.081.167-1.627.205v9.058l-.032.695c-.017.186-.04.373-.067.566a4.832 4.832 0 01-.355 1.239 2.972 2.972 0 01-.708.995c-.33.294-.744.48-1.183.532h9.684a1.802 1.802 0 01-1.018-.598 3.315 3.315 0 01-.62-1.117 6.826 6.826 0 01-.31-1.438 16.119 16.119 0 01-.1-1.537l-.002-.278c.385-.507.982-1.293 1.694-2.22.382.643.789 1.312 1.21 1.978 2.001 3.167 3.598 5.215 6.136 5.215l14.272-.005a3.317 3.317 0 01-1.025-.648 3.587 3.587 0 01-.705-1.064 3.942 3.942 0 01-.313-1.496v-2.945zM103.66 49.059c.245.238.42.54.504.87.09.364.128.738.111 1.111-.012.407-.012.816 0 1.228 0 .207.007.449.02.726a2.09 2.09 0 01-.11.793 1.3 1.3 0 01-.504.638c-.346.199-.743.29-1.14.262a2.427 2.427 0 01-1.434-.388 2.837 2.837 0 01-.868-.985 4.621 4.621 0 01-.447-1.264v.01a13.74 13.74 0 01-.046-6.066c.094-.442.258-.867.484-1.258.22-.377.518-.7.877-.948a2.546 2.546 0 011.353-.415c.243-.012.487.005.726.048.256.045.498.094.726.145a9.956 9.956 0 013.239 1.325c1.117.732 2.021 1.473 2.412 2.543V40.42a2.423 2.423 0 01-1.329 1.462 3.69 3.69 0 01-.588.147c-.046.006-.094.01-.143.014-.029.003-.06.003-.09.004a7.486 7.486 0 01-1.14-.095 6.902 6.902 0 01-1.21-.29 15.249 15.249 0 00-1.15-.34 7.975 7.975 0 00-1.11-.193 11.269 11.269 0 00-1.151-.057c-.781-.003-1.56.084-2.32.26a8.193 8.193 0 00-2.079.794 7.138 7.138 0 00-1.735 1.334c-.407.43-.757.91-1.04 1.43l-.01.017a11.397 11.397 0 00-.71 6.571c.106.445.249.88.426 1.303.09.214.188.42.295.62.402.766.95 1.446 1.615 2.001.673.553 1.448.97 2.28 1.228.944.288 1.93.415 2.915.377.446-.015.89-.08 1.322-.192.45-.117.904-.247 1.362-.388.458-.142.917-.277 1.382-.406.444-.126.901-.2 1.362-.223.443-.02.886.033 1.311.155.46.138.88.38 1.23.706v-4.68c.002-.343.03-.686.083-1.025.05-.349.144-.69.281-1.015.134-.314.326-.6.566-.842.254-.252.566-.438.908-.541h-8.636c.442.042.86.217 1.2.503" fill="#FFF"/></g></svg>